<?xml version="1.0" encoding="UTF-8"?>
<svg width="1024px" height="1024px" viewBox="0 0 1024 1024" version="1.1" xmlns="http://www.w3.org/2000/svg" xmlns:xlink="http://www.w3.org/1999/xlink">
    <title>Group</title>
    <g id="Page-1" stroke="none" stroke-width="1" fill="none" fill-rule="evenodd">
        <g id="Group">
            <circle id="Oval" stroke="#DBEAFE" fill="#DBEAFE" cx="512" cy="512" r="511.5"></circle>
            <g id="hubx-copy" transform="translate(256.984163, 257.982922)" fill="#2563EB" stroke="#2563EB" stroke-width="1.01">
                <g id="Combined-Shape-2">
                    <path d="M388.551995,282.265203 L423.654728,317.370873 L486.305098,380.024891 C500.996885,394.71692 508.34302,413.972974 508.34341,433.229177 C508.3438,452.48538 500.998446,471.741732 486.307254,486.434358 C471.591357,501.151804 452.326206,508.512203 433.066624,508.522313 C413.799101,508.532427 394.537215,501.186186 379.841645,486.490616 L282.091153,388.732005 L388.551995,282.265203 Z M75.7804751,0.667687953 C95.0471802,0.658323902 114.308695,8.00456572 129.004037,22.6999076 L254.080303,147.78648 L292.407567,186.029757 L301.779729,196.00156 C318.658963,209.800104 329.433881,230.785549 329.433881,254.287659 C329.433881,274.946985 321.107999,293.661699 307.628835,307.259181 L242.904666,372.460156 L129.190014,486.331145 C114.498809,501.024754 95.2426844,508.371949 75.9861252,508.372789 C56.7293324,508.37363 37.4721059,501.02794 22.7791411,486.335831 C8.06528579,471.618879 0.706673328,452.353129 0.697313007,433.093007 C0.687949231,413.825777 8.03326711,394.564237 22.727025,379.868074 L147.977155,254.61 L22.5410507,129.1661 C7.85004708,114.472692 0.504719714,95.2156553 0.505000008,75.9587259 C0.505280302,56.7017965 7.85116826,37.4449735 22.5425996,22.7519933 C37.256646,8.03639834 56.5211246,0.67704843 75.7804751,0.667687953 Z M433.23154,0.505000072 C452.488333,0.504159197 471.74556,7.84984914 486.438525,22.5419585 C501.15238,37.258911 508.510992,56.5246605 508.520353,75.7847824 C508.529716,95.0520124 501.184399,114.313553 486.490644,129.009712 L388.805002,226.699804 L282.345159,120.234001 L380.027651,22.5466447 C394.718856,7.85303539 413.974981,0.505840937 433.23154,0.505000072 Z" id="Combined-Shape"></path>
                </g>
            </g>
        </g>
    </g>
</svg>